<mxfile host="app.diagrams.net" modified="2022-07-09T06:12:06.091Z" agent="5.0 (Windows NT 10.0; Win64; x64) AppleWebKit/537.36 (KHTML, like Gecko) Chrome/103.0.0.0 Safari/537.36" etag="kOfuctn3DC47gN7ZNGnS" version="20.0.1" type="github" pages="2">
  <diagram id="UHSXfzukdmE1P1iyDsnm" name="Release Process">
    <mxGraphModel dx="2185" dy="751" grid="1" gridSize="10" guides="1" tooltips="1" connect="1" arrows="1" fold="1" page="1" pageScale="1" pageWidth="850" pageHeight="1100" math="0" shadow="0">
      <root>
        <mxCell id="0" />
        <mxCell id="1" parent="0" />
        <mxCell id="qpUzJrpMg6w3xpp5v1wR-10" style="edgeStyle=orthogonalEdgeStyle;rounded=0;orthogonalLoop=1;jettySize=auto;html=1;curved=1;entryX=0.5;entryY=0;entryDx=0;entryDy=0;" edge="1" parent="1" source="qpUzJrpMg6w3xpp5v1wR-2" target="qpUzJrpMg6w3xpp5v1wR-3">
          <mxGeometry relative="1" as="geometry">
            <mxPoint x="540" y="149.9999999999999" as="targetPoint" />
          </mxGeometry>
        </mxCell>
        <mxCell id="qpUzJrpMg6w3xpp5v1wR-2" value="" style="shape=image;verticalLabelPosition=bottom;labelBackgroundColor=default;verticalAlign=top;aspect=fixed;imageAspect=0;image=data:image/png,iVBORw0KGgoAAAANSUhEUgAAANkAAADoCAMAAABVRrFMAAAAvVBMVEX////0uywzMzMwMDDztgAsLCz0uR4nJyciIiIpKSn0uicXFxceHh4rKysZGRn0uBj42JMSEhL5+fnm5ub647PS0tLh4eGEhITu7u6MjIympqbb29tUVFRDQ0N1dXWxsbE7Ozv98dr87tHCwsJfX1+goKD75rz0vjf30Hr3zXH53KB+fn6VlZVoaGgAAADMzMz++/L+9ub41IdNTU376sb64Kr98Nb2xlb1wkhZWVm4uLj42JX2ymb1xFD3znPA4MzjAAAM90lEQVR4nO1deX+iPBBWOQWE4n1rq9bWo7bVblvru9//Y72AWiEJEEJIxN8+/7pL85DJXJkZCgW2aK7Wg36nwfivMsDSVgRBqNjrKu+VUEZfLR2hDG6LWutMzKG25r0YmmjapQvsWzprK8XHrNzivRyKmEo+ZkKf93IoYiD4mQ14L4cixjfLrBRgtuW9HIoQAsxu6ZxVSn5m37yXQxHlALMp7+VQhN+claQbYlYNMrsh96qq3iqzdoBZZch7PfQAMFvyXg89tA0/s1vyiAFmHd7roYdagJmy4r0eeqiZV8Rs0pmuOxtKD2sGmc0oPZYEm7FZliTFHDSpPC7ITO1SeSgR9vbJNxf0CY3n1a6FmT8f87Kn8cSAPTNTZXja7RRZvbU/6NBpvOGhz9kXyuTPqbVKhqlMSc9/+8X/hks2BVVW032vakT8mO5L2T0mkk3on20C1seRHgo+w+hXwA1yr/HyEJUsEBqpQWZpFvOLvaEIriTa5A5IwydLBtEZmQB75rwiCnFHuyPZtrRMYUYCCTCD5Ak1G2RWUqgkZdJdVbQC4atJpEW+JYhaecv7BqURfN9kRrEHb1qpMm7TXmsyBGSR2EWbIahJpRrltSZCUBadPSP0IFY6TE1QOO5aA3zXNuliuqhd45iPLwVlsVQh19Z7BDWD3HtICVAWS2aKozExBZAZt6uGDfiayQz1GQ2Yms1J9QvASqSUr7ipgNR0PupxCcqikXYdNQkw2cQKKRU2oKJOJ4se2uPg9ZBAYZ3JAckijVuq6tZ/P6Qk99Pf7neP9frHR73+uPvz9kqyhhkYeqTRixdUvy8yLphJhPH+8ecw1yzRukCUi1/PP7u3ZEsYAFtGQRaPmJ5jGsHGzvbcLw4OJVnTiiA0TXZ+OSwesLevBpwyKrJ4RMcuC4IgqQpmYmb3VBQtmFOAn2zJhzoeuZ4ZZJZIcOKevRyUxlM8/+PhybLkSFa/7CzxE4dcM7hntP0gTAv9MRfxaJ3JWc8PsX+64j9nXG6CX9/jhBBFTpw/xjx3WMlIFjHx+o4phfDGzT8in1zzJXZSZPRIsSDkdeSm1aOe7cvoMb9TfJhbxLw8WPNdxOP3tpfRq6TI6BHiXUx8vqB9Ew8RerLdGSuqMOyxo+ThPu2Gnbktov5Klb3qWKTfsBOsr4R+V7Y4UNmwIzQxWkuyxNucXCWiID7zZnTCAzVJPEOeX4VE7kTKvIqus/yHN61C4TEDYu5hizJtTFDPhJgDMc6TzBhZiOKZWqSzlTX+ZEeM7669ybS1YpBabNiWGYqZEnOo8VL+B7oGGoZWJMrgpcaCoksVRu2LB7H7LLXHGdY7B2bzjA/ZERws9k/2sujBYn3U3ljIogv5wJjZJxNZdMHYYNcZyWLRvQRgyixrG+2HdceQGMMtc6kxdEXoanxNBgD8Lv9lRozullnFuwB+7kBq7PzHL5pbJkLH6Bl8vMwq5UM1KoNTp++wRLDaNOidpiEGRc4fiPcms3EfXymeMtgtROcf2PhYH/SYWVDUfI9+uMUkKfIfNWEUoazia0j+QftkQIyeL4zIc4QaSpGBOFITRnjHCp+h+Qcr8vaJDmh5+Ygdewp/aQzyBq+UhBERLP9EPTp7cdzREUZEBjj6hsDKPEyDnDoyYvDtX0zGSH7KmhkVnS/+QM99jQv55IyJUXFALMT7D1eL57dxny2zBwrMZITZRbjB4OvI2A2hYM20IvxYjGs4OTZpUK01JqNVt0vWQfqeXoHIcEiCk28OdbDatc1+1loPVFs3DVVRVLNE0i6T3k4jLHSs9vCYzRHLqa36Y1V3+JQlX5mgoBP0N6YWRlS1B56+RUQyrRcFrAknrjpL64Gg1OId3uuCQ54+WBB+gZ204TKto49y/3Dvui3QH2uFE0s+fuRPOmnUZFiiXnF1Eqj2wXrwABIPd3tMxwx184ytk8BAZgU2ygSpHf9RtdnYTPb7UXe26rSGw/X6u7+eoSQ1XaYRVeKHf1sFpnnWcIutH+4/aS8V3TAM1YGilMuViiS5pfk6YgZQKkONujB6wD+4oE/cR2rF85a55eF7s4z+VYUbvBYpDDXK98A+ZO7/B/KpkXumjgqFyUv4z5DBS8MM5dImKU8AmUFNQP4tk6qFKtQ554MNFu2mYIbKZKCyptjMInSj4M6XhSYv+AGNASKvlEAdsmTWUQOvZDohSxdUxe36X0edQ2j4G7kGQQWOyaJYOKr+DlAThEpZVQ1d3c68PpdxBDHY3uFofU1GpENR1Q8JyxMQyX3Hb3TUeEVRDVO3pf6w091vauf2nUhmUGtNXH5Hky3r62cxB3tjUFmMpKUyMpxiKNRm621/uOpOGnAL4TRKGqHOx5C0++lPW+L8fef5T7uvwLJRCj/xxamVsCa8G6VBdFA3hp15TbOs4tOjzyt89F/KItLBGPkBkFnCvFxVDd80xNhxNDNr/rcORsqvlyJ+VHVAAufj/JSkVdMjxGyCE7Ex3EuHtGcausTy7rR4ZDScvO4ieZZ4ZqN2TSjbQ0STINozl9GCcsrboJyPJwKTn5RYobDp24477PjEpmnquu3CKA9ayBRQSIZHRGdwvaASdRVLUFlNdoXW3uz3k02j12vWYuaahRk06wspK06kmtYRPiPru+rQugJNRh62PyLKRpPU6WadSQ3PfmvoAvsdopaDqH0h6+x3lK8H16ygQXY3IGbLK/qWCbPqlygbq2VewRnpOaKyiRDIWmmyr5uIvs3FoEZ4T8WgQClaluIF8pkoLGdRuR8TolmIWMMPwu4nmUHVRFxxQUx3FWJcCA6YVMvFqTZUyPILwvs3Nm0kcRlwVPL+jOSxyxFJo05CxCm3iBdMWoDMqNMiVqJCdT9pUi/7YpAj4lMzIVrkjTSnl7nPeMYhVqbQSyFtxWNS3eghXg8gk1XEjbwMGz7jy9pRJ4NUfbDbMizlDQecxHcCTHt0MQIR0KoRV2yx3DKsZgTw8oW4k5eZYjytM37Tgi1xpN4HM1t2Bk7RbaAljrj9KcJXywYYV0T+pDfxxRsjj9EPjPS1L/QgVh8cesUx7O5FqxFXHzNWH0dghP1no0bsMDJqYgLwGi+O51sYstxHiJPGABgjeI63ecQjDrhNCIm/Kjq+dNJCVj6y6CHeSLkJUFIfn5csuogXM3d1pEaa47QanEy2VSetHOQyG+SCiMaqI7SvORkx5O02S8RWGJH6i1xstB9hnZlpwaJJMAaRZT3EYBtuhoA48ooC8yE1SGQwDpD/KMAjqE++4qzwffhLd1oZd4XvA91RKNwVvg/EARgKHBIEEaA4e/MqFL4P9AYDMk9WxYCkSAyJa1H4F1CSR9aJUxxQGdVwTQr/F1QGh1yTwr+AQkfyFXj4SKQ2anymh2IgdYM8ywlyyZByROC1ymIh7aZdrSy6SLFnmsxtsDIOSDZNk2XLsuTP5+uVxULCa3b3Y2GWWPzv7+Lx/sp8RQSwbNqRkjh/vqvjfwKNN2Ly4R4la/75/vFwzYcKiZDM6nGb5M+nxY7sQ4P8AWbxPUqW9vX8k4fDFIVLOcXpMB3e6/mTPCQOsqvGRav4+b5I+gXI68aj+JkPNf4PpGj3JrPhlvln6DJFc9JtfY8NU1UqBuH33K8M1fZm1FmXbNNQy6eZTmbSSUfXhnZvvxpuJd2hJAX6gU3eKyNG1TlMy61hupKHaHHm8uXRlKjWNqPWdGyaBpLSCWXmn3tMg3ZjtFqPVROSPARUWp9kzhzdYV+xDVWJpXRmlhvVOIyY8gBDkPC/ec0bkZM5/JwqiqNVxtMllS+fs0DDiKMkKaqjVbbL2aSH+W3o60A7dDCHIJVVQ5e2w9W+x/57qhQA75kgOJRMu7TujDbRMx+uG1v/aM+KI3nG+LvVneTdhyqcRr55h8k2+u5hyqXkodDSDbMyWK9GjZuhdMKkexmo9Q+3hnbDCWxKubHUOPACm37JC6nt22DmBjadtWB7gc3ROuh5Z+YFNtsKHFLnl9kxpLZtMySwMcHxdTlAbdOND6lLJtnceD5wdd56bGCF1Hnas4aeJKQu6flxKBsmJqcj1Pz4YJHDxiEI8ETn68UYPxEiSAZiDPfVYljB4eTG1+pg3cmPAomZ3+zN2TV11QlGN828hQRNtApxg1FDL/WHs5ymQRwoICVX8uzxcLVv5DkNUvAdNC+nqI6nHScY5b0oKtgb3mGyle/lbNLMq+QhIQ08yeO9jH/4B3xUm3ky03hwQrfOdKy+3IbGdOGVFgzH9jFpoOfmUjAK7d5+NtwK/jyImidnGIGqW9TSN3SvtMAfBZT7vJdGimMGbuAlDRBxTXmbW0er+2JG5EHUfm6JOdGMHhqCCna+z1hDCvmWV1nJu1asLm3El6EqyA8u5A29qR789pOg2Ov85OEiUVsNdFeTOCg70dp2dkshQG2/Gn5vt2snAGVE63+WYw5chhPbwgAAAABJRU5ErkJggg==;" vertex="1" parent="1">
          <mxGeometry x="280" y="40" width="112.24" height="120" as="geometry" />
        </mxCell>
        <mxCell id="qpUzJrpMg6w3xpp5v1wR-11" style="edgeStyle=orthogonalEdgeStyle;curved=1;rounded=0;orthogonalLoop=1;jettySize=auto;html=1;entryX=0.5;entryY=0;entryDx=0;entryDy=0;" edge="1" parent="1" source="qpUzJrpMg6w3xpp5v1wR-3" target="qpUzJrpMg6w3xpp5v1wR-4">
          <mxGeometry relative="1" as="geometry" />
        </mxCell>
        <mxCell id="qpUzJrpMg6w3xpp5v1wR-3" value="" style="shape=image;verticalLabelPosition=bottom;labelBackgroundColor=default;verticalAlign=top;aspect=fixed;imageAspect=0;image=data:image/png,iVBORw0KGgoAAAANSUhEUgAAAOEAAADhCAMAAAAJbSJIAAAAaVBMVEX///8AAACqqqrLy8vp6ekpKSlcXFyDg4Ps7OwtLS319fWmpqawsLC7u7uioqKnp6cTExPY2Nibm5s0NDQjIyPe3t5TU1PIyMh9fX1ISEjCwsJmZmZtbW2NjY2UlJR0dHRCQkIMDAwbGxsZO6erAAADS0lEQVR4nO3dzVoaQRSE4W7BiIAK/oDRaDT3f5FZJQtzRqSnq7qZfLV0UcXrSjkPQ0rDye58/+TFSGIX5svJC/P5curCvLESWwjzZjF1Yc7zyQuNxFbC/DB5oY3YTpi3kxeaiC2FeTZ5oYXYVpj3bqFh4kOeJJPD84aJj7mSbA7OGyb+yVoyOjRvmLATOxDmlWQ2njdMPAfEa8luOO+Y+BEQbyXD4bxjIiK+SpbDecfEY0B8kUyH846JCyexiTC9BMQLyXgrYXoNiD8l662E6dZGbCVM1wHx2TfvmLgxEdsJ0zog7nzzjgkPsaUwXQXE6te3pkILsa0wPQXEN9+8Y2IfEO98846JmZrYXJi2AfG+4g21vVBNPCxczr+esomHgJirEQ8LV9H+QMKXdXgiIr7XuoQfnj/TC9M8KqtE7EMYE+tcwjsRpkVUV+VM3IswLTYiYjdCGbEfYVqeB43jL+EdCdPyMqgcfSbuSZjSnYDYlzC9BaUjz8SdCQXE3oRpF9SOuoTbhe+fN7zfRz8dQzwsXP+6/Gri/3mO+A0NZsQl/LBwdGoI81ml+YquoYnSFF/CT0ZYfAk/HWHpi0NYIQgRIjxqvqosnkCIcOR8VdmfzBeFmZ+KsDwIfSWqIPSVqILQV6IKwkolo6/c5TEJR79fWh6ElUoQIhwRhJVKECIcEYSVShCevnD6f3k3DEJfiSoIfSWqIPSVqILQV6IKQl+JKgh9Jaog9JWogtBXogpCX4kqCH0lqpiE6825PpvwIyMm4THvl5Yn/MQIQoQIESJEiBAhQoR/c8yVuzzhM71NwmOehFWeCs8qKBY2DEJfiSoIfSWqIPSVqILQV6IKQl+JKgh9Jaog9JWogtBXogpCX4kqCCuVXO2+6bMLn/1oEk7//VKECBEiRIgQIUKEpyCc/pV7vp/psw+/NcckbBiEvhJVEPpKVEHoK1EFoa9EFYS+ElUQ+kpUQegrUQWhr0QVhL4SVRBWKpk9XujzGH7bqEk4/fdLESJEiBAhQoQIEZ6C8MYivGko3K7O9FltGwobBqGvRBWEvhJVEPpKVEHoK1EFoa9EFYS+ElUQ+kpUQegrUUUg7DoIEfYfhAj7D0KE/Qchwv7zXwt/A29hWAzH2ZjpAAAAAElFTkSuQmCC;" vertex="1" parent="1">
          <mxGeometry x="520" y="200" width="110" height="110" as="geometry" />
        </mxCell>
        <mxCell id="qpUzJrpMg6w3xpp5v1wR-12" style="edgeStyle=orthogonalEdgeStyle;curved=1;rounded=0;orthogonalLoop=1;jettySize=auto;html=1;entryX=1;entryY=0.5;entryDx=0;entryDy=0;exitX=0.5;exitY=1;exitDx=0;exitDy=0;" edge="1" parent="1" source="qpUzJrpMg6w3xpp5v1wR-4" target="qpUzJrpMg6w3xpp5v1wR-9">
          <mxGeometry relative="1" as="geometry" />
        </mxCell>
        <mxCell id="qpUzJrpMg6w3xpp5v1wR-4" value="" style="shape=image;verticalLabelPosition=bottom;labelBackgroundColor=default;verticalAlign=top;aspect=fixed;imageAspect=0;image=https://freesvg.org/img/thenanobel-programming-17.01-inkscape-svg.png;" vertex="1" parent="1">
          <mxGeometry x="516" y="440" width="120" height="120" as="geometry" />
        </mxCell>
        <mxCell id="qpUzJrpMg6w3xpp5v1wR-14" style="edgeStyle=orthogonalEdgeStyle;curved=1;rounded=0;orthogonalLoop=1;jettySize=auto;html=1;exitX=0.5;exitY=0;exitDx=0;exitDy=0;entryX=0.5;entryY=1;entryDx=0;entryDy=0;" edge="1" parent="1" source="qpUzJrpMg6w3xpp5v1wR-6" target="qpUzJrpMg6w3xpp5v1wR-8">
          <mxGeometry relative="1" as="geometry" />
        </mxCell>
        <mxCell id="qpUzJrpMg6w3xpp5v1wR-6" value="" style="shape=image;verticalLabelPosition=bottom;labelBackgroundColor=default;verticalAlign=top;aspect=fixed;imageAspect=0;image=data:image/png,iVBORw0KGgoAAAANSUhEUgAAAOEAAADhCAMAAAAJbSJIAAAA81BMVEWVnLP///9bXW7Hz+JwdIdGRlWSmbAA0v/D5niXnrVOUGOCiJ1XWWqPlq+co7jS1d7d3+ajqL2OlKrd3eB9gpa5wdW/x9qIjqPn6e4A1f80NEZKSllBQE/G6nVscIRdYHFkaHmTmLbS0tVTUm2ama5YWW610YRUVmZSUG18inGqsseOn7e/4XSRpXN9p8LKzdiAhKGSlaOUn6BgZW6gsZxxe3CJm3KbqKNZudszx+9Hv+WguXS313exy4t0rMotLD6AkG14e5a8v8prdGyXrXOjvXSsyXJkamt/jnGx0HOXoauVoZ6jtZl0gG1ls9SNkJ5+gIy3CqH/AAAIdUlEQVR4nO2dfVvaPBTGU1YKBWHC0IJY1IHT4Qvgw5Q6H+fY2zPn2L7/p3lamrbpC0pLTlpC7svLPw69PPkZmp40uVskSYMq4lXVgSQhSVXSbgegFFVCU54BTcQp4vcraot3vo2TmnYDqCmaRFXqCh+MC0jUhtzpyDwMrIoF0gghqo2ObGn9e1Gdc3RCiIpsf6CRH6jZU0SrAoCa3VVyELyO42XVw1O0MpQakSF/Pq3caARCw+HV+Go49MdGNzfVI4+kjPuqrgYI5QChqnS2gNTet3RChk7yVqgdPixPHnZ6ca7r+vnFqRfqfvlphvR3j0cBQvklQrWeg1I7b6vkhUo41PZCWziUP3FD3W960ZL+reuEjt/jUPExNuEBNCDRdpeGQPQOc2kubBqT5+IYh/5xQsW7SjxCtbwFRZgP43g0eSftiRdy+vq06Al3YverS6iPj+IRylCARNPd3iFCTr+WvBD+Rxx/cWmK+ge7E0/vvNC/MQk7KRE6HdYOHeaccnOc9zZh99zr1ndr34e5qD78mbwPM3QeOtCnRIfh8/A4+XmI1EMownaIZtmx9NodS6+PnaDLfHcU92pRz0H1YjvQNzmvx4jrodvXz18Pf+PQeezroVnTyKA1TT5JTXM9r2muyZrmx3erpvnXI1ma0JpG1jUgWVXnyyEtFDLr0huzLvXHzLoUhevSZQjXdG4Ri3AdJQgFYfYlCKEJez3rB1LpEvbujUKhYNxDMqZKeGa0CpZaxhlckjQJzwqe4BBjECo0ShryHnqBFBFXKORBbqIYlffOKwrarTmpe5MWAdiaOOeiUtulkWhHjU1II60lZ4WyV/DLIazRShSTUOnTSryDO/Gs5QNs4TNRofJVsdRX4hFSS/wKE14GCC8xIbU8O4IwcB5SOz2cb6l/KHUHU3r/ylq885Ba5l0nQ8/wARpuXUNlKPX+k4sJg6trSm2Hgvpeinvf1eLS+6BPI5F7VVq0uoYUTEiskCo05GXo3XqIrVuiNKWbR9UwYXDBXm3YHyA49QwHsWVA1t42SHghX5E74S8vXfVmhZalwgx0cmENKdF7LrSyBrzdpIcuZ5PZJQKeISomSfQnwRtzEOoBT4DnYkIixFC896eK+jxs9FospY+albQbAapKE0lNVGGh4L0KhUlW1JSQJElNFhqcHJA6GTDJKklzQiZ6s5cntfeGVWJBSE2CEEyCkJo2gXCfFFPCQa3KQGrdd9ehrrJIWpt716qMyrbgWgoTVaoSGnBelw6493bxzifEmawlaT5uaVhr3lHetbJlh2LfHABZJrXwjgu1zJl3LYyI1zMy712r0PSuIar7gl/YELzUHuHy8HH86N8jXB5qNzdKFr1rifZ5P8z3eT8Q+7xLeJ93/P002dmr7zWj+xFvzP9I7NUvJt2rD+dd89wwqfotsuSZ4dS7RkA73rUPwrvGYx92V+hDsPNwK9T0dM7DNfQBx/eugQ2mz3i5814oysv9HV8Pv3vXw/8wop7Au1YHrmlK8WuaLvbjd4nQh6R+fAT6TIVG1DMVwrFQaDj8Nf4VeKbC59F4nNS7lsbc4SWZLKEQIm8Xpu0ogZcgFITZlyCE965Bb91L2bt2eWsUjNtLnr1r1i7hlvCuraQ43jUKW/p8O9kjbU/UEzH3rlUXeNdmm+Ndq9JKFJNQeNdiKKPOLv4J6XvXwL+lwrsW5V3bXVmLvWv33gd9Goky4V0zCO+akYJ3DfctpDeB8K4BZsFPYg2t16vzD/yL3LTVm5hVt/UzAZ1c2MvcYZOaisqNMrR3rXc/uZ3cQ88QlXJDi9w4owrvmlBGxXt/Cu/a2svyrm2zcZGl411Ttm3v2jYDTQ8OSR1MWSRl7F1Lz2/BRpvgmRGEQBKE1LQBhJ98Y+knloSv+zUGqmp1UlqVRdL+a4uwVmFTmYb2iDCQUqltgnetlnYbgMU7nxBnsoY3Pm5pqDZMKFyWOzIn3jWTJHxrG3vXws9xWzvZz9Zb7F3zrdhAbRJdQRGtCgDWl/auWe+3gJKmaUuEwjFtOLoaDTV/qH71mNC7JudA93kn8q7d6bp+9+B/R0lR14sJ3lGiKgfr5V0bxSYEe1dQVrxrWkreNScU5ZnxTE7nUe97qsQjTNv3FPHOrh+E7+kL9j2t8M4u4V2DIlzSu/abK++ac1iX8K7hkcYZXS3CJ768a85I43nXzmN71+AHU+Lil9y79uB4165QTEIzcghU0uB3yZaIkilX2g/XNHm7piEOO/1q1i968StZ0/y2yhz9ZzLvWr3cgJK8VCgU+9wYP43N377Y1dPTI+fetaMjkkR4ZgRh5iUIBeGq4t+7NjEMY8Kvdw253jXAHOl619xd0MK7tkKiGIRUDBc77qMne7No7xqq0kkUn5CS0WORd82g7V3bjUkovGsxlFFnF/+EaA2/pfHOQ3qZnTyLvGsqpTwJvGs0LGW7nnetF/CueRfEPoU8O/0E3jUqljJm3jXvii+8a7x710BfLGcins1ujdvZGfAMsW6SLPKugU/w4WfAiA2IEFPx3p/Cu7b2mnvXmJjIUvKuVWzv2vZrBpoedkgdTlkk3ZY2xG/BRhvgmRGEUBKE1CQIwSQIqUkQgkkQUpMgBJMgpCaeCZt/rAmhHJQV/NOETw9P2DwM07mUh/CI8ISjxYAm4gg8Pzzhc4AmInh+Qbi6BCG0LMI3IHqL9QKhcxhMI+aE0xKM9vdsPQsoy/iofaBWTCX0lnjtElU5tp4XCPFR7Zf/YCKV3qK/0GbYdAm3/iKgv5wVwlxOECaXIBSEtCQIk0sQCkJKOtiAmob/ulQabMFU9Xux5hZ7MI3YGthPSgaZmmVhfsjmSclZmOPDShBCSxCuLv7veTcjVmVcwA4P6xZSc7SQcMRg7el/JqIRccWSu3YAAAAASUVORK5CYII=;" vertex="1" parent="1">
          <mxGeometry x="35" y="440" width="110" height="110" as="geometry" />
        </mxCell>
        <mxCell id="qpUzJrpMg6w3xpp5v1wR-15" style="edgeStyle=orthogonalEdgeStyle;curved=1;rounded=0;orthogonalLoop=1;jettySize=auto;html=1;entryX=0;entryY=0.5;entryDx=0;entryDy=0;exitX=0.5;exitY=0;exitDx=0;exitDy=0;" edge="1" parent="1" source="qpUzJrpMg6w3xpp5v1wR-8" target="qpUzJrpMg6w3xpp5v1wR-2">
          <mxGeometry relative="1" as="geometry" />
        </mxCell>
        <mxCell id="qpUzJrpMg6w3xpp5v1wR-8" value="" style="shape=image;verticalLabelPosition=bottom;labelBackgroundColor=default;verticalAlign=top;aspect=fixed;imageAspect=0;image=data:image/png,iVBORw0KGgoAAAANSUhEUgAAAOEAAADhCAMAAAAJbSJIAAAAsVBMVEVTyvn///9oh4eq5vnv12BMsNhUdHWv6Pled3dNZ2hRzv9phYNfpbpNyPlfgIBezfmY4Pls0fmD2flCYGBJyf/z11rf1nW60qO5wsJJbG722FNyzOKy0axednZTb29cfn5XkKPy9PSGnp6wvr7n6+uBk5Nyj4/H0dF81vns7++ns7OZrKzY3d1nfn6ywMB0iYmOpKRoy+mm0LiAzdjK1I/m1mvg1nOPzszE05id0L/X1YFJtiGJAAAFs0lEQVR4nO3da4OaOBSAYXC6itsFdS4tayspqDByUWe63dv//2HLzXYl6QyGnDAHz/up38jTeCEhtoZpmu52ZeU5o6F1jHKdYe4yrwT2PRyIWOjnwqz0rfoeDFChabheCRzeS7SKRcZh0FOYvxeNEjhgYWhYAxeOSIg/EuKPhPgjIf5IiL8rEP5S9etgOwmN4UZC/JEQfyTEHwnxR0L8kRB/JMQfCfFHQvyREH/XKrQxdoHQXtzO8XW7EBsFwtl8coOxyXzWUtj3SDvUSmjf4pzBosmt4IXKC/seZqfaCGd4pzCfRME7kYS4IiEJ334kJOHbr5XQQC3kgYK7tnnfw+zQvM1dm7HAO4mTRZs5NOxHrMTJo2gNLFgf2ov5BGNz8SJfuE9jGzN8GT/ZqLnWvbYhRUL8kRB/JMQfCfFHQvz1IrSNBVAz/va7D6H9eAO2hOKfPvUhhNxF4Ini9aF9r7DmJYF3gpp/nyLh/dPzR3V9/towwgq57TaR8I/lg8qW3z6dEe1bSCH3kFSwE/Xh4Z3aHpbnRMhNZ343ihPePy8VA3Pin/dnkziDe53y2228ULkvb/m18VZsDkNVgnNDTaH9pH4K80l8BjO9Gif8BCL8fP/CGEhIQhKSkIQkFAl1nhTuQ5jftUEtgFvctekQ9nvnrUEIfEb3LQj7XQGjF766i6HjfdjvTpSWz9JHqI/SNruJWr4PbRtqR1iwtqZ7GhKSkIQkJCEJRXveEMLlX409b30LYIHwb9UPZooaV4X7FS7/mJsTGot3yonNKbyBu/Xmj3rzQvvpm9rnhw/Lf87vSkFXwNxxfV6Yv0me//2gsI9PjW2o/p8BG0of43MP8t/Ac3zgQH/uMGnzKoUnAv7aYc5drQ9h8Y82ACX4yUUvQsCvfP5SPQk1RkL8kRB/JMQfCfFHQvyREH8kxB8J8UdC/F2NsO//lQku40vVb4PNWFW9H2xX8P+ukRB9JMQfCfGnTejdneeBX7FOl3B612wKfck6TULGAe/uHOBr1mkSjgXCMfA160ioKoEQ+pJ1uoROX29Djd+HjFk/Ygz+gnX0jY+/KxAeVsMWBobrlUJdn2y6cyLDzMpJtPoeClChaZh+5uXG1SCJLPRzoWmuM69ozBy4BJcHvFpdGOW6Qqgj925a5o3rfnc1XZmEqiIhXCRUFQnhIqGqSAgXCVVFQrhIqCoSwkVCVZEQLhKqioRwkVBVJISLhKoiIVwkVBUJ4SKhqnhhpOnKsEJ/s0mjyHXX8XbaEI6D/d6NojTd7HzQMQAIfT+N3Pi4LZ6dj8eMlQ/PLU5YP4lmRU4YJGs32vjqR6NWuEvd+ARrPLrPOKHgsT5jozBZK4aqEm7c5OBNPc+yxCdzXhf+kOZzGsTRRtHIFAj9KD6s8omzsheOHbUXfneOgnXqdx9eV2EaH3Lc6kWdjLBiMhbsu85lJ2Ga5HO3ynmvD1ZKWClHSdqP0I+tYvJWP3njqRKWyHDvaxfujt5Fh8UE3xbtiQUykTVKCuPiUzP3vW87RF544Tlox9lrFPpZdWTzktN+tXAq8So9GbfahL5VHdi86DhjcxIljrI7oS5h4MmcnPbOiFJn9Z1Yk9CzLp/CPPa/F6rkkWRHj9CfyglH34+UyvHymB6heZB4G6op0CTcTKvz/S1uZdTGZO7gpL4tUm/VxwF/R+ruTe4bf3e4/AuxayzwpcYqe9cWlSf89U0jC2Vvv+XvvKPDBTfe3XJYIL+86LJ62sRZsXi64O5Ujheuu6wRO66AN/UCGGgmHeYE7q7bELvvYvjVMt+zHKVTWWzXBOtOa19VwrLUPWYVUw1uFCaqtqIU7ib6m2h9rDbcmnuJLWHlfmJQ7CeqGxXAjnABTbaHzCq3g1+5Cz1tCo/CYk84SlXS6gB39f1dmkbuOk6SY7DdhmF4YuV/DIMgOCZJvN67xca+DzcK8z8ddSguyT68IgAAAABJRU5ErkJggg==;" vertex="1" parent="1">
          <mxGeometry x="31" y="200" width="120" height="120" as="geometry" />
        </mxCell>
        <mxCell id="qpUzJrpMg6w3xpp5v1wR-13" style="edgeStyle=orthogonalEdgeStyle;curved=1;rounded=0;orthogonalLoop=1;jettySize=auto;html=1;" edge="1" parent="1" source="qpUzJrpMg6w3xpp5v1wR-9" target="qpUzJrpMg6w3xpp5v1wR-6">
          <mxGeometry relative="1" as="geometry" />
        </mxCell>
        <mxCell id="qpUzJrpMg6w3xpp5v1wR-9" value="" style="shape=image;verticalLabelPosition=bottom;labelBackgroundColor=default;verticalAlign=top;aspect=fixed;imageAspect=0;image=data:image/png,iVBORw0KGgoAAAANSUhEUgAAAOEAAADhCAMAAAAJbSJIAAAA6lBMVEX3sjn///8zMzP5VCj6tDkiIiKvr68aJjPZnjj+tzkpLjOCZDX3ry33sDP61Jr4wmrgmy0kKzPxrjmmfDYtMDP/VSfjpTjSmTi+jDc8ODOUcDVhUDQYMTMpMjPlUCmFPy8UJDOedzZYSjTHkTfXli1RRTSjRC1ZODHuUimOQC/LSyvy8vI8PDy7hC51XDTnqDj85cSLajWwgzb4uVH5yYADHzLJycnf3990dHRFRUWenp4PDw/soizEii5+XjFXV1duWDT72an98d2XQi5fOTH+9epIQDPXTSr4vmJANTJRNzK7SCxxPDAmJiZdVg4aAAAGSklEQVR4nO3dbVfbNhQHcOGKOnLiFjtuHqE1ZFnbjSYkEGCDdZQtjD3k+3+dOYycgx0sCcmSdTX9X+2cvah/R8GW7pVltMPIxaVXX376mXV57CDG/z+/WtUo9HaPf1Qt3K3Tl2UlTWQIz+sWyhMZwte1C6WJ5gtliQCEkkReYRJoTlIVkVOYTJqaM66KyCn0O0RzBkFFP1ReYQMjrSGznFCCCEUoTgQjFCbCEYoSzRcGkkTzhXNfjmi8MNj7EkkRzRd+d/1FahQBCPfkRhGEcE9mFGEIZUYRiFCCCEUoTgQjFCbCEYrebgAJBUcRklBsFEEJhUYRllCECEwoQIQmfDkRnPDFRPOFe9d54fUv3ouIxguTr18LteLZMHkJ0XihJ1vwN1/IyOpX24Xe1YXtwt3XQIWHER0GXogbC8uF2c80Teg06EJE5n2uJjFcIcIkpqXrKxbisujyN5QKMZl2yoKIFqRaIel5aWkWN1MdRKVCcpjSbm5BooOoUoinVKDnRU2iytXKEqoXzlnTjUSRMAy/3d6enLZUC0mbJQxiNUC0fLio+9BWYev28apalgrD081VnYW6hAeFJGqFbzdX9aalSXjw2/f5/J5YNob7n97l8+HgeSERu7eSwuxI/9/h/vtXuZQIcTzrC+WuGeeIm0F8q+1eyifEnSDiW+kVk0RRfjocom/Lpc7nIZ+QDHkrLtsJjgq/bz1zmpcJmXM8avxO2RTXIGHD375wfmHXfCGKpYSlyxSDhGTCWxfcTjQpPmfCMDROiNCdHyQiCfy7woO11To7i1vGCTGZT4YimcwLVZ/Wm/U1nZj2tHgwiqXwN/gf8JGoSfiOT1hRws1VnWqbl/7xKR+1wvB+c1Xa1hbefiGPQHtWT6VxQiesW4jZQhVAncIuY7WQjJXUS/UJERnTV3yLnpKqvkYhjo/SqDz+XE3JW6Mwm4WN2odlmU9V1fQ1CqkzTWU9Ur3COuKETuiETuiEwITUwosNz0MybR6NyzJUNGnTOi8d+RGlzOkP1YyizjFkdMv8Q+CrJ9xjdCKSPnCh/VUMJ7RKWLiL2if8WMiftgm39tN8Vtp7qkPI2V0jo5nQgWazEYEhxDep4Kl06RCEkDQl+vhPdxsbK4zFgRkxNl9Y3X4aY4WdqvZEmSpE5Ehs3946uR6PsULcSEW37gXp00WbscLsd3rzzOvKHPFucvv2zBVmU5rS18DoyU9qDBZWFJPnpWCF3l/52Le2KL8HOqETOqGrl0oKEfYYNe82eGE3ovQtgvTGgv008WB4VJZmD37vCa1fK7O7f1hPnNAJndAJnRCakNZNsuF5iMm8vJs0aMCf0+BO3y+vAUaLAfh5Kbmjl3hT6Hv18Yi1PoT+vgXHGl8F0Cwh8CqGE9oktP4EnuJ7wK9KOzOCvaf6hbz7aeJRTySjGMh+GtIOfMqrbpSX4KJcWdJYIZnznia7nUUbQh8fCfuyJADGEDekdps8+XedsC4hQn3x/TSeB+BXinBP4k7zdB1mrBCRXuQLpgfiabGe0TS6ImnkZzUGCwHP2njPTawmdZx9+eFzPh89y4RbqyfPOmFZnNAJ6xbWdZ63xpo366xHRWey66zqtxe0yXTkKTqQTue73L1x9NxnER7iFU7/BSlEmKDSb4cgVZ8NcD1gJ3RCJ3RCJzRNyF97ACok01FpuqqMWncMzdLyCmDa78LfTzOhLi6SVM0frcb1IasTEajZrG/UGbTAx9D+KoYT2iQ8sP1M9oO/f8jnH+s6M+/5OjO0b3rSMoXytjrpjgUbpOMuiA4p7lJrj7QkixGELje+kzj5ow9AKHd6Swrg9BbJE3gg7Kex/hQlRAbig+gPQOzcI03adwZoSSdAzqchjfZAJO0GkB2060kb2FMFrd9Pwz3zhiq0f/VUGid0wrqF7P000KuJ7IrwEHhF2P6qfpbmgtKZ8UbgOzPr7hr37mygQvs7pLXECZ3QCZ3QCZ2QQ3i6uaozxd/lri2t5eNVZUNop3AziGfWCjPiyXJ5e78GWipEYStL+PCflgqfxAmd0AnrT+XCjlj3SGE61QqTidA3qVRmklQq9BLBj1Kpy2YPS1VCc+OE/3vhOQDhuZRwZ1U3gJkVQ8ASnl+ZbVxdMYaQKdy5uDyuW0HJ8eUFC/AvuUIfV1rfF+EAAAAASUVORK5CYII=;" vertex="1" parent="1">
          <mxGeometry x="272.24" y="600" width="120" height="120" as="geometry" />
        </mxCell>
        <mxCell id="qpUzJrpMg6w3xpp5v1wR-16" value="&lt;b&gt;&lt;font style=&quot;font-size: 25px;&quot;&gt;Idea&lt;/font&gt;&lt;/b&gt;" style="text;html=1;align=center;verticalAlign=middle;resizable=0;points=[];autosize=1;strokeColor=none;fillColor=none;" vertex="1" parent="1">
          <mxGeometry x="301.12" y="180" width="70" height="20" as="geometry" />
        </mxCell>
        <mxCell id="qpUzJrpMg6w3xpp5v1wR-17" value="&lt;b&gt;&lt;font style=&quot;font-size: 25px;&quot;&gt;Requiremets&lt;/font&gt;&lt;/b&gt;" style="text;html=1;align=center;verticalAlign=middle;resizable=0;points=[];autosize=1;strokeColor=none;fillColor=none;" vertex="1" parent="1">
          <mxGeometry x="630" y="245" width="170" height="20" as="geometry" />
        </mxCell>
        <mxCell id="qpUzJrpMg6w3xpp5v1wR-18" value="&lt;b&gt;&lt;font style=&quot;font-size: 25px;&quot;&gt;Coding&lt;/font&gt;&lt;/b&gt;" style="text;html=1;align=center;verticalAlign=middle;resizable=0;points=[];autosize=1;strokeColor=none;fillColor=none;" vertex="1" parent="1">
          <mxGeometry x="650" y="485" width="100" height="20" as="geometry" />
        </mxCell>
        <mxCell id="qpUzJrpMg6w3xpp5v1wR-19" value="&lt;b&gt;&lt;font style=&quot;font-size: 25px;&quot;&gt;Testing&lt;/font&gt;&lt;/b&gt;" style="text;html=1;align=center;verticalAlign=middle;resizable=0;points=[];autosize=1;strokeColor=none;fillColor=none;" vertex="1" parent="1">
          <mxGeometry x="282.24" y="740" width="100" height="20" as="geometry" />
        </mxCell>
        <mxCell id="qpUzJrpMg6w3xpp5v1wR-20" value="&lt;b&gt;&lt;font style=&quot;font-size: 25px;&quot;&gt;Deployment&lt;/font&gt;&lt;/b&gt;" style="text;html=1;align=center;verticalAlign=middle;resizable=0;points=[];autosize=1;strokeColor=none;fillColor=none;" vertex="1" parent="1">
          <mxGeometry x="-150" y="480" width="160" height="20" as="geometry" />
        </mxCell>
        <mxCell id="qpUzJrpMg6w3xpp5v1wR-21" value="&lt;b&gt;&lt;font style=&quot;font-size: 25px;&quot;&gt;Monitoring&lt;/font&gt;&lt;/b&gt;" style="text;html=1;align=center;verticalAlign=middle;resizable=0;points=[];autosize=1;strokeColor=none;fillColor=none;" vertex="1" parent="1">
          <mxGeometry x="-130" y="230" width="140" height="20" as="geometry" />
        </mxCell>
      </root>
    </mxGraphModel>
  </diagram>
  <diagram id="-bOKbABpfCrO6oT0ZfWy" name="Wall">
    <mxGraphModel dx="868" dy="488" grid="1" gridSize="10" guides="1" tooltips="1" connect="1" arrows="1" fold="1" page="1" pageScale="1" pageWidth="850" pageHeight="1100" math="0" shadow="0">
      <root>
        <mxCell id="0" />
        <mxCell id="1" parent="0" />
        <mxCell id="GOScYqIgDVw0E31RGDIn-1" value="" style="shape=image;verticalLabelPosition=bottom;labelBackgroundColor=default;verticalAlign=top;aspect=fixed;imageAspect=0;image=https://freesvg.org/img/thenanobel-programming-17.01-inkscape-svg.png;" vertex="1" parent="1">
          <mxGeometry x="160" y="160" width="120" height="120" as="geometry" />
        </mxCell>
      </root>
    </mxGraphModel>
  </diagram>
</mxfile>
